<svg width="1247" height="1028" viewBox="0 0 1247 1028" fill="none" xmlns="http://www.w3.org/2000/svg">
<path d="M157.01 88.1979L153.896 93.5885V146.411L131.021 133.208L128.943 136.802L153.896 151.198V180H158.052V89.9895C158.052 89.2239 157.625 88.5625 157.01 88.1979Z" fill="#9E8954"/>
<path d="M261.984 93.5938L261.995 93.599V0H257.839V86.4062L257.833 86.3906V180H261.984V93.5938Z" fill="#9E8954"/>
<path d="M180.917 46.8073L205.865 61.2083V178.797L203.786 180H210.016V1.19792L212.094 0H207.943L205.865 3.59896V56.4167L182.995 43.2083C182.99 43.2083 182.99 43.2083 182.99 43.2083L180.911 46.8073C180.911 46.8073 180.911 46.8073 180.917 46.8073Z" fill="#9E8954"/>
<path d="M131.026 226.802L208.984 181.802C209.651 181.411 210.016 180.714 210.016 180H203.797L158.042 206.406V180H153.885L153.891 208.807L128.953 223.198L131.026 226.802Z" fill="#9E8954"/>
<path d="M182.995 316.792L257.839 273.589L261.995 266.391L180.917 313.193L182.995 316.792Z" fill="#9E8954"/>
<path d="M153.896 266.401L157.005 271.786L157.01 271.792L309.802 183.594L311.88 180H311.885V179.99H315.974L313.896 178.797V176.51L313.958 176.401V123.583L336.786 136.76L336.771 136.792L411.615 179.99H419.922L338.896 133.219L338.911 133.193C338.911 133.193 338.911 133.193 338.906 133.193L313.958 118.786V1.19792L316.036 0H309.807V178.797L307.729 180H307.724L261.979 206.406V180H257.828C257.828 180 257.828 180 257.823 180V208.802L155.974 267.599L153.896 266.401Z" fill="#9E8954"/>
<path d="M205.865 356.391L207.943 359.99L208.984 358.193L210.021 356.391L207.943 357.589L205.865 356.391Z" fill="#9E8954"/>
<path d="M362.771 91.7656L362.755 91.7917L362.75 91.8021L515.547 180H519.703L517.625 176.401L471.875 149.99L494.745 136.792C494.75 136.792 494.75 136.792 494.75 136.792L492.672 133.193C492.672 133.193 492.672 133.193 492.667 133.193L467.724 147.594L365.87 88.8021V86.5104L365.927 86.4062V33.5885L388.76 46.7656L388.74 46.8021L466.693 91.8073C467.359 92.1875 468.146 92.151 468.771 91.7917L465.656 86.4062L419.906 60.0052L442.781 46.7917L440.703 43.1979L415.755 57.599L390.859 43.2344L390.88 43.1927L365.927 28.7917V0H361.776V90C361.776 90.7552 362.177 91.3958 362.771 91.7656Z" fill="#9E8954"/>
<path d="M362.812 268.198L210.021 356.401L207.943 359.99H212.099L257.844 333.589V359.99H262V331.187L363.854 272.396L365.927 273.594L362.818 268.208L362.812 268.198Z" fill="#9E8954"/>
<path d="M388.797 313.193L310.839 358.193C310.172 358.578 309.807 359.271 309.807 359.99H316.031L361.781 333.583V359.99H365.937V331.188L390.875 316.786L388.797 313.193Z" fill="#9E8954"/>
<path d="M257.833 273.599L338.906 226.802L336.828 223.198L261.984 266.406L257.833 273.599Z" fill="#9E8954"/>
<path d="M310.844 181.802L309.802 183.594L311.88 182.396L313.958 183.594L311.88 180L310.844 181.802Z" fill="#9E8954"/>
<path d="M311.885 180L313.964 183.594L359.714 210.005L336.839 223.198V223.208L338.911 226.802H338.917L363.865 212.401L465.719 271.198V273.594L468.828 268.208L468.833 268.198L316.042 180H311.885Z" fill="#9E8954"/>
<path d="M362.818 268.198L365.927 273.589L411.677 299.99L388.802 313.198L390.88 316.792L415.833 302.391L440.771 316.786L442.849 313.193L364.896 268.193C364.224 267.802 363.437 267.839 362.818 268.198Z" fill="#9E8954"/>
<path d="M411.661 180L492.74 226.802L494.818 223.198L419.974 180H411.661Z" fill="#9E8954"/>
<path d="M519.766 180H515.609L517.687 181.198V183.594L519.766 180Z" fill="#9E8954"/>
<path d="M468.839 268.198L465.729 273.589V326.401L442.854 313.198L440.776 316.802L465.729 331.198V359.99H469.885V269.99C469.885 269.224 469.464 268.562 468.839 268.198Z" fill="#9E8954"/>
<path d="M573.818 273.589L573.823 273.599V180H569.667V266.401L569.661 266.391V359.99H573.818V273.589Z" fill="#9E8954"/>
<path d="M494.823 223.208L492.745 226.802V226.807L517.698 241.208V358.797L515.62 359.99H521.854V183.594H521.849V181.198L523.927 180L569.677 153.589V179.99H573.833V151.193L675.682 92.3958L677.76 93.5937L674.651 88.2083L674.646 88.1979L521.854 176.401L519.776 180H519.771L517.698 183.594V236.411L494.823 223.208Z" fill="#9E8954"/>
<path d="M521.844 359.99H515.625L469.88 386.406L469.875 360H465.719L465.724 388.802L440.781 403.203L442.859 406.797L520.818 361.792C521.484 361.411 521.844 360.714 521.844 359.99Z" fill="#9E8954"/>
<path d="M494.828 496.786L569.672 453.583L573.828 446.391L492.75 493.193L494.828 496.786Z" fill="#9E8954"/>
<path d="M520.813 538.193L521.854 536.391L519.776 537.594L517.698 536.391L519.776 539.99L520.813 538.193Z" fill="#9E8954"/>
<path d="M650.74 313.188L625.792 298.786V181.198L627.87 180H621.635V358.797L619.557 359.99L573.807 386.406L573.812 360C573.812 360 573.812 360 573.812 359.99H569.656C569.656 360 569.656 360 569.656 360V388.802L467.802 447.594L465.724 446.396L468.839 451.786L468.844 451.792L621.635 363.594L623.714 359.99H627.807L625.729 358.797V356.505L625.792 356.401V303.583L648.62 316.76L648.599 316.792L723.448 359.99H731.755L650.724 313.219L650.745 313.193C650.74 313.188 650.74 313.188 650.74 313.188Z" fill="#9E8954"/>
<path d="M700.63 493.193L622.672 538.193C622.005 538.573 621.641 539.271 621.641 539.99H627.859L673.609 513.583L673.615 539.99H677.771L677.766 511.188L702.708 496.786L700.63 493.193Z" fill="#9E8954"/>
<path d="M569.661 453.599L650.74 406.797L648.661 403.198L573.818 446.401L569.661 453.599Z" fill="#9E8954"/>
<path d="M569.677 539.99H573.833V511.187L675.682 452.391L677.76 453.594L674.651 448.203L674.646 448.198L521.854 536.396L519.776 539.99H519.771L517.698 543.594V596.406L494.823 583.203L492.745 586.797V586.802L517.698 601.203V718.786L515.62 719.99H521.854V543.594L521.849 543.589V541.193L523.927 539.99L569.677 513.583V539.99Z" fill="#9E8954"/>
<path d="M623.714 360L622.672 361.792L621.635 363.594L623.714 362.396L625.786 363.594L623.714 360Z" fill="#9E8954"/>
<path d="M731.802 359.99H723.495L804.427 406.714L804.38 406.802L829.328 421.203V538.792L827.25 539.99H833.484V361.188L835.557 359.99H831.406V360H827.443L829.521 361.198V363.26L829.328 363.594V416.411L806.599 403.286L806.651 403.198L731.802 359.99Z" fill="#9E8954"/>
<path d="M442.859 46.8021L520.818 1.80208C521.484 1.42187 521.844 0.718749 521.844 0H515.625L469.88 26.4115L469.875 0H465.719L465.724 28.8073L440.781 43.2083L442.859 46.8021Z" fill="#9E8954"/>
<path d="M494.828 136.792L569.672 93.5885L573.828 86.3906L492.75 133.193L494.828 136.792Z" fill="#9E8954"/>
<path d="M465.724 86.401L468.839 91.7917L468.844 91.8021L621.635 3.59896L623.714 0H619.557L573.807 26.4062L573.812 0.0104167C573.812 0 573.812 0 573.812 0H569.656C569.656 0 569.656 0 569.656 0.0104167V28.8073L467.802 87.599L465.724 86.401Z" fill="#9E8954"/>
<path d="M520.813 178.193L521.854 176.401L519.776 177.599L517.698 176.401L519.776 179.99L520.813 178.193Z" fill="#9E8954"/>
<path d="M700.63 133.193L622.672 178.193C622.005 178.578 621.641 179.281 621.641 179.99H627.859L673.609 153.589L673.615 179.99H677.771L677.766 151.188L702.708 136.792L700.63 133.193Z" fill="#9E8954"/>
<path d="M569.661 93.599L650.74 46.8021L648.661 43.2084L573.818 86.4063L569.661 93.599Z" fill="#9E8954"/>
<path d="M623.714 0L622.672 1.80208L621.635 3.59896L623.714 2.40104L625.786 3.59896L623.714 0Z" fill="#9E8954"/>
<path d="M671.542 30.0052L648.672 43.2083C648.672 43.2083 648.672 43.2083 648.667 43.2083L650.745 46.8073V46.8021L675.698 32.401L777.547 91.1979V93.2656L777.359 93.5885V146.411L754.625 133.281L754.682 133.193L676.724 88.1927C676.057 87.8125 675.271 87.8385 674.651 88.1979L677.76 93.5885L723.51 119.995L700.635 133.198L702.713 136.802L727.661 122.391L752.458 136.708L752.411 136.802L777.359 151.198V180H781.516V89.9896C781.516 89.2865 781.156 88.6719 780.615 88.2969L780.661 88.2083V88.1979L627.87 0H623.719L625.797 3.59896L671.542 30.0052Z" fill="#9E8954"/>
<path d="M158.052 539.99V449.99C158.052 449.219 157.625 448.557 157.01 448.198L153.896 453.583V506.401L131.021 493.198L128.943 496.797L153.896 511.198V539.99H158.052Z" fill="#9E8954"/>
<path d="M182.99 403.203L180.911 406.802C180.911 406.802 180.911 406.802 180.917 406.802L205.865 421.203V538.792L203.786 539.99H210.016V361.188L212.094 359.99H207.943L205.865 363.594V416.411L182.995 403.203C182.99 403.203 182.99 403.203 182.99 403.203Z" fill="#9E8954"/>
<path d="M157.01 631.792L309.802 543.594L311.88 539.99H315.974L313.896 538.792V536.505L313.958 536.396V483.578L336.786 496.76L336.771 496.786L411.615 539.99H419.922L338.896 493.219L338.911 493.188C338.911 493.188 338.911 493.188 338.906 493.188L313.958 478.781V361.188L316.036 359.99H309.807V538.792L307.729 539.99H307.724L261.979 566.401V539.995C261.979 539.995 261.979 539.995 261.979 539.99H257.828C257.828 539.995 257.828 539.995 257.823 539.995V568.797L155.974 627.594L153.896 626.391L157.005 631.781L157.01 631.792Z" fill="#9E8954"/>
<path d="M131.026 586.797L208.984 541.792C209.651 541.412 210.016 540.714 210.016 539.995H203.797L158.042 566.401V539.995H153.885L153.891 568.802L128.953 583.198L131.026 586.797Z" fill="#9E8954"/>
<path d="M257.839 633.583L261.995 626.385L180.917 673.188L182.995 676.787L257.839 633.583Z" fill="#9E8954"/>
<path d="M208.984 718.188L210.021 716.391L207.943 717.589L205.865 716.391L207.943 719.984L208.984 718.188Z" fill="#9E8954"/>
<path d="M466.693 451.797C467.359 452.182 468.146 452.151 468.771 451.792L465.656 446.406L419.906 419.995L442.781 406.792L440.703 403.193L415.755 417.599L390.859 403.229L390.88 403.193L365.927 388.792V359.99H361.776V449.995C361.776 450.745 362.177 451.396 362.771 451.76L362.755 451.786L362.75 451.792L515.547 539.99H519.703L517.625 536.396L471.875 509.99L494.745 496.786C494.75 496.786 494.75 496.786 494.75 496.786L492.672 493.188C492.672 493.188 492.672 493.188 492.667 493.193L467.724 507.589L365.87 448.792V446.505L365.927 446.401V393.583L388.76 406.76L388.74 406.797L466.693 451.797Z" fill="#9E8954"/>
<path d="M257.839 446.401L257.833 446.391V539.99H261.984V453.589L261.995 453.599V359.99H257.839V446.401Z" fill="#9E8954"/>
<path d="M388.797 673.188L310.839 718.188C310.172 718.573 309.807 719.271 309.807 719.984H316.031L361.781 693.583V719.984H365.937V691.182L390.875 676.786L388.797 673.188Z" fill="#9E8954"/>
<path d="M257.833 633.599L338.906 586.797L336.828 583.198L261.984 626.401L257.833 633.599Z" fill="#9E8954"/>
<path d="M262 719.984V691.187L363.854 632.385L365.927 633.588L362.818 628.198L362.812 628.193L210.021 716.391L207.943 719.99H212.099L257.844 693.583V719.984H262Z" fill="#9E8954"/>
<path d="M311.88 539.995L309.802 543.594L311.88 542.396L313.958 543.594L311.88 539.995Z" fill="#9E8954"/>
<path d="M494.818 583.198L419.974 539.995H411.661L492.74 586.797L494.818 583.198Z" fill="#9E8954"/>
<path d="M415.833 662.385L440.771 676.787L442.849 673.188L364.896 628.188C364.224 627.802 363.437 627.839 362.818 628.193L365.927 633.578L411.677 659.99L388.802 673.198L390.88 676.792L415.833 662.385Z" fill="#9E8954"/>
<path d="M468.828 628.198L468.833 628.193L316.042 539.99H311.885L313.964 543.594L359.714 569.995L336.839 583.198L338.911 586.797H338.917L363.865 572.396L465.719 631.187V633.588L468.828 628.198Z" fill="#9E8954"/>
<path d="M519.766 539.995H515.609L517.687 541.198V543.594L519.766 539.995Z" fill="#9E8954"/>
<path d="M465.729 719.99H469.885V629.984C469.885 629.219 469.464 628.557 468.839 628.198L465.729 633.583V686.401L442.854 673.198L440.776 676.797L465.729 691.198V719.99Z" fill="#9E8954"/>
<path d="M442.859 766.792L520.818 721.792C521.484 721.406 521.844 720.708 521.844 719.99H515.625L469.88 746.396L469.875 719.99H465.719L465.724 748.802L440.781 763.193L442.859 766.792Z" fill="#9E8954"/>
<path d="M573.828 806.385L492.75 853.188L494.828 856.781L569.672 813.578L573.828 806.385Z" fill="#9E8954"/>
<path d="M520.813 898.188L521.854 896.385L519.776 897.583L517.698 896.385L519.776 899.984L520.813 898.188Z" fill="#9E8954"/>
<path d="M650.74 673.182L625.792 658.781V541.193L627.87 539.99H621.635V718.786L619.562 719.99H619.557L573.807 746.396L573.812 719.99H573.818V633.588L573.823 633.594V539.99H569.667V626.396L569.661 626.385V719.99H569.656V748.792L467.802 807.588L465.724 806.391L468.839 811.781L468.844 811.786L621.635 723.588L623.714 719.99L623.719 719.984H627.807L625.729 718.786V716.505L625.792 716.391V663.578L648.62 676.755L648.599 676.786L723.448 719.984H731.755L650.724 673.213L650.745 673.187C650.74 673.187 650.74 673.182 650.74 673.182Z" fill="#9E8954"/>
<path d="M700.63 853.188L622.672 898.188C622.005 898.568 621.641 899.266 621.641 899.984H627.859L673.609 873.573L673.615 899.984H677.771L677.766 871.182L702.708 856.781L700.63 853.188Z" fill="#9E8954"/>
<path d="M648.661 763.193L573.818 806.401L569.661 813.594L650.74 766.792L648.661 763.193Z" fill="#9E8954"/>
<path d="M621.635 723.588L623.714 722.385L625.786 723.588L623.714 719.99L622.672 721.792L621.635 723.588Z" fill="#9E8954"/>
<path d="M677.76 813.589L674.651 808.198L674.646 808.193L521.854 896.391L519.776 899.984H523.927L569.677 873.583V899.984H573.833V871.182L675.682 812.385L677.76 813.589Z" fill="#9E8954"/>
<path d="M153.896 899.984H158.052V809.984C158.052 809.219 157.625 808.552 157.01 808.193L153.896 813.578V866.396L131.021 853.193L128.943 856.792L153.896 871.193V899.984Z" fill="#9E8954"/>
<path d="M131.026 946.792L208.984 901.786C209.651 901.406 210.016 900.708 210.016 899.984H203.797L158.042 926.396V899.99H153.885L153.891 928.792L128.953 943.193L131.026 946.792Z" fill="#9E8954"/>
<path d="M261.995 986.38L180.917 1033.19L182.995 1036.78L257.839 993.578L261.995 986.38Z" fill="#9E8954"/>
<path d="M519.703 899.984L517.625 896.391L471.875 869.984L494.745 856.781C494.75 856.781 494.75 856.781 494.75 856.781L492.672 853.187C492.672 853.187 492.672 853.187 492.667 853.187L467.724 867.588L365.87 808.786V806.505L365.927 806.401V753.583L388.755 766.76L388.74 766.792L466.693 811.792C467.359 812.182 468.146 812.146 468.771 811.786L465.656 806.401L419.906 779.99L442.781 766.786L440.703 763.187L415.755 777.594L390.859 763.219L390.88 763.187L365.927 748.786V719.99H361.776V809.99C361.776 810.74 362.177 811.391 362.771 811.75L362.755 811.781L362.75 811.786L515.547 899.984H519.703Z" fill="#9E8954"/>
<path d="M338.896 853.213L338.911 853.187C338.911 853.182 338.911 853.182 338.906 853.182L313.958 838.781V721.187L316.036 719.99H309.807V898.786L307.729 899.984H307.724L261.979 926.396V899.99V899.984H257.828C257.828 899.99 257.828 899.99 257.823 899.99V928.792L155.974 987.588L153.896 986.385L157.005 991.781L157.01 991.786L309.802 903.588L311.88 899.984H315.974L313.896 898.786V896.505L313.958 896.391V843.578L336.786 856.75L336.771 856.781L411.615 899.984H419.922L338.896 853.213Z" fill="#9E8954"/>
<path d="M257.839 806.391L257.833 806.385V899.984H261.984V813.578L261.995 813.594V719.99H257.839V806.391Z" fill="#9E8954"/>
<path d="M212.094 719.99H207.943L205.865 723.588V776.401L182.995 763.198C182.99 763.198 182.99 763.198 182.99 763.198L180.911 766.792C180.911 766.792 180.911 766.802 180.917 766.802L205.865 781.198V898.786L203.786 899.984H210.016V721.187L212.094 719.99Z" fill="#9E8954"/>
<path d="M336.828 943.193L261.984 986.391L257.833 993.594L338.906 946.787L336.828 943.193Z" fill="#9E8954"/>
<mask id="mask0_2471_119" style="mask-type:luminance" maskUnits="userSpaceOnUse" x="207" y="988" width="160" height="92">
<path d="M207.734 988H366.302V1079.98H207.734V988Z" fill="white"/>
</mask>
<g mask="url(#mask0_2471_119)">
<path d="M365.927 993.589L362.818 988.193L362.812 988.188L210.021 1076.39L207.943 1079.98H212.099L257.844 1053.57V1079.98V1079.98H262V1051.18L363.854 992.38L365.927 993.589Z" fill="#9E8954"/>
</g>
<path d="M311.88 899.99L310.844 901.787L309.802 903.589L311.88 902.386L313.958 903.589L311.88 899.99Z" fill="#9E8954"/>
<path d="M364.896 988.182C364.224 987.797 363.437 987.833 362.818 988.187L365.927 993.578L411.677 1019.98L388.802 1033.19L390.88 1036.79L415.833 1022.38L440.771 1036.78L442.849 1033.19L364.896 988.182Z" fill="#9E8954"/>
<path d="M419.974 899.984H411.661L492.74 946.786L494.818 943.193L419.974 899.984Z" fill="#9E8954"/>
<path d="M468.828 988.193L468.833 988.188L316.042 899.984H311.885L313.964 903.589L359.714 929.99L336.839 943.193L338.911 946.792H338.917L363.865 932.391L465.719 991.182V993.589L468.828 988.193Z" fill="#9E8954"/>
<path d="M519.766 899.99H515.609L517.687 901.188V903.589L519.766 899.99Z" fill="#9E8954"/>
<mask id="mask1_2471_119" style="mask-type:luminance" maskUnits="userSpaceOnUse" x="440" y="988" width="31" height="92">
<path d="M440.396 988H470.172V1079.98H440.396V988Z" fill="white"/>
</mask>
<g mask="url(#mask1_2471_119)">
<path d="M468.839 988.193L465.729 993.578V1046.4L442.854 1033.19L440.776 1036.79L465.729 1051.19V1079.98H469.885V989.979C469.885 989.208 469.464 988.552 468.839 988.193Z" fill="#9E8954"/>
</g>
<mask id="mask2_2471_119" style="mask-type:luminance" maskUnits="userSpaceOnUse" x="569" y="899" width="6" height="181">
<path d="M569.328 899.307H574.036V1079.98H569.328V899.307Z" fill="white"/>
</mask>
<g mask="url(#mask2_2471_119)">
<path d="M569.667 986.391L569.661 986.385V1079.98H573.818V993.578L573.823 993.594V899.984H569.667V986.391Z" fill="#9E8954"/>
</g>
<mask id="mask3_2471_119" style="mask-type:luminance" maskUnits="userSpaceOnUse" x="619" y="899" width="113" height="181">
<path d="M619.047 899.307H731.917V1079.98H619.047V899.307Z" fill="white"/>
</mask>
<g mask="url(#mask3_2471_119)">
<path d="M650.745 1033.18C650.74 1033.18 650.74 1033.18 650.74 1033.18L625.792 1018.78V901.182L627.87 899.984H621.635V1078.79L619.557 1079.98H627.807L625.729 1078.78V1076.5L625.792 1076.39V1023.57L648.62 1036.75L648.599 1036.78L723.448 1079.98H731.755L650.724 1033.21L650.745 1033.18Z" fill="#9E8954"/>
</g>
<mask id="mask4_2471_119" style="mask-type:luminance" maskUnits="userSpaceOnUse" x="492" y="899" width="32" height="181">
<path d="M492.328 899.307H523.995V1079.98H492.328V899.307Z" fill="white"/>
</mask>
<g mask="url(#mask4_2471_119)">
<path d="M523.927 899.984H519.771L517.698 903.589V956.401L494.823 943.198C494.823 943.198 494.823 943.198 494.823 943.193L492.745 946.792L517.698 961.198V1078.79L515.62 1079.98H521.854V903.589H521.849V901.182L523.927 899.984Z" fill="#9E8954"/>
</g>
<path d="M50.8645 271.792L203.661 359.99H207.812L205.734 356.401L159.99 329.99L182.859 316.786C182.865 316.786 182.865 316.786 182.865 316.786L180.786 313.193L155.833 327.594L53.9843 268.797V266.51L54.0416 266.406V213.589L76.8698 226.766L76.8489 226.802L154.807 271.802C155.474 272.188 156.26 272.151 156.885 271.792L153.771 266.406L108.021 239.995L130.896 226.792L128.823 223.193L103.87 237.599L78.9739 223.229L78.9948 223.193L54.0416 208.792V180H49.8854V270C49.8854 270.745 50.2916 271.396 50.8854 271.76L50.8698 271.786L50.8645 271.792Z" fill="#9E8954"/>
<path d="M2.01042 359.99H4.08854L2.01042 358.797V356.51L2.07812 356.401V303.583L24.901 316.76L24.8854 316.792L99.7292 359.99H108.036L27.0104 313.219L27.026 313.193C27.026 313.188 27.026 313.188 27.0208 313.188L2.07812 298.786V181.198L4.15104 180H0V359.99H2.01042Z" fill="#9E8954"/>
<path d="M49.8906 513.583L49.8958 539.99H54.0521L54.0469 511.188L78.9896 496.786L76.9115 493.193L0 537.589V539.99H4.14583L49.8906 513.583Z" fill="#9E8954"/>
<path d="M24.9427 403.198L0 417.599V422.396L27.0208 406.797L24.9427 403.198Z" fill="#9E8954"/>
<path d="M54.0469 453.594L50.9323 448.203L50.9271 448.198L0 477.594V482.391L51.9688 452.391L54.0469 453.594Z" fill="#9E8954"/>
<path d="M0 360V362.396L2.07292 363.594L0 360Z" fill="#9E8954"/>
<path d="M180.854 406.797L182.932 403.198L108.089 359.99H99.776L180.854 406.797Z" fill="#9E8954"/>
<path d="M78.9948 496.797L103.948 482.391L128.891 496.786L130.964 493.193L53.0052 448.187C52.3385 447.802 51.552 447.838 50.9323 448.198L54.0416 453.583L99.7916 479.99L76.9166 493.198L78.9948 496.797Z" fill="#9E8954"/>
<path d="M24.9531 403.203L27.026 406.802C27.026 406.797 27.026 406.797 27.0312 406.797L51.9792 392.396L153.833 451.193V453.594L156.943 448.203L156.948 448.198L4.15625 359.99H0L2.07812 363.594L47.8281 390L24.9531 403.203Z" fill="#9E8954"/>
<path d="M207.88 360H203.729L205.802 361.198V363.594L207.88 360Z" fill="#9E8954"/>
<path d="M49.8906 153.589L49.8958 179.99H54.0521L54.0469 151.188L78.9896 136.792L76.9115 133.193L0 177.589V179.99H4.14583L49.8906 153.589Z" fill="#9E8954"/>
<path d="M24.9427 43.2084L0 57.6094V62.3959L27.0208 46.8021L24.9427 43.2084Z" fill="#9E8954"/>
<path d="M54.0469 93.5937L50.9323 88.2083L50.9271 88.1979L0 117.604V122.391L51.9688 92.3958L54.0469 93.5937Z" fill="#9E8954"/>
<path d="M0 0.010376V2.401L2.07292 3.59892L0 0.010376Z" fill="#9E8954"/>
<path d="M47.8281 30.0052L24.9531 43.2083L27.026 46.8073C27.026 46.8073 27.026 46.8021 27.0312 46.8021L51.9792 32.401L153.833 91.1979V93.5938L156.943 88.2083L156.948 88.1979L4.15625 0H0L2.07812 3.59896L47.8281 30.0052Z" fill="#9E8954"/>
<path d="M182.932 43.2083L108.089 0H99.776L180.854 46.8021L182.932 43.2083Z" fill="#9E8954"/>
<path d="M78.9948 136.802L103.948 122.391L128.891 136.792L130.964 133.193L53.0052 88.1927C52.3385 87.8125 51.552 87.8385 50.9323 88.1979L54.0416 93.5885L99.7916 119.995L76.9166 133.198L78.9948 136.802Z" fill="#9E8954"/>
<path d="M205.802 3.59896L207.88 0H203.729L205.802 1.20313V3.59896Z" fill="#9E8954"/>
<path d="M50.8645 631.792L203.661 719.99H207.812L205.734 716.391L159.99 689.984L182.859 676.786C182.865 676.786 182.865 676.781 182.865 676.781L180.786 673.187L155.833 687.588L53.9843 628.792V626.505L54.0416 626.401V573.583L76.8698 586.76L76.8489 586.797L154.807 631.797C155.474 632.182 156.26 632.146 156.885 631.792L153.771 626.401L108.021 599.995L130.896 586.786L128.823 583.193L103.87 597.594L78.9739 583.224L78.9948 583.187L54.0416 568.786V539.99H49.8854V629.995C49.8854 630.745 50.2916 631.391 50.8854 631.755L50.8698 631.781L50.8645 631.792Z" fill="#9E8954"/>
<path d="M2.01042 719.984H4.08854L2.01042 718.786V716.505L2.07812 716.391V663.578L24.901 676.755L24.8854 676.786L99.7292 719.984H108.036L27.0104 673.213L27.026 673.187C27.026 673.187 27.026 673.182 27.0208 673.182L2.07812 658.781V541.193L4.15104 539.99H0V719.984H2.01042Z" fill="#9E8954"/>
<path d="M49.8906 873.573L49.8958 899.984H54.0521L54.0469 871.182L78.9896 856.781L76.9115 853.188L0 897.583V899.984H4.14583L49.8906 873.573Z" fill="#9E8954"/>
<path d="M24.9427 763.193L0 777.594V782.391L27.0208 766.792L24.9427 763.193Z" fill="#9E8954"/>
<path d="M54.0469 813.589L50.9323 808.198L50.9271 808.193L0 837.589V842.385L51.9688 812.385L54.0469 813.589Z" fill="#9E8954"/>
<path d="M0 720V722.396L2.07292 723.589L0 720Z" fill="#9E8954"/>
<path d="M180.854 766.792L182.932 763.193L108.089 719.99H99.776L180.854 766.792Z" fill="#9E8954"/>
<path d="M78.9948 856.787L103.948 842.385L128.891 856.781L130.964 853.188L53.0052 808.188C52.3385 807.797 51.552 807.833 50.9323 808.193L54.0416 813.578L99.7916 839.984L76.9166 853.193L78.9948 856.787Z" fill="#9E8954"/>
<path d="M24.9531 763.198L27.026 766.792C27.026 766.792 27.026 766.792 27.0312 766.792L51.9792 752.391L153.833 811.187V813.588L156.943 808.198L156.948 808.193L4.15625 719.99H0L2.07812 723.588L47.8281 749.995L24.9531 763.193V763.198Z" fill="#9E8954"/>
<path d="M207.88 719.99H203.729L205.802 721.187V723.588L207.88 719.99Z" fill="#9E8954"/>
<mask id="mask5_2471_119" style="mask-type:luminance" maskUnits="userSpaceOnUse" x="49" y="899" width="159" height="181">
<path d="M49.8541 899.307H207.995V1079.98H49.8541V899.307Z" fill="white"/>
</mask>
<g mask="url(#mask5_2471_119)">
<path d="M159.99 1049.98L182.859 1036.78C182.865 1036.78 182.865 1036.78 182.865 1036.78L180.786 1033.18L155.833 1047.58L53.9843 988.786V986.5L54.0416 986.391V933.578L76.8698 946.75L76.8489 946.792L154.807 991.792C155.474 992.172 156.26 992.141 156.885 991.786L153.771 986.401L108.021 959.99L130.896 946.786L128.823 943.188L103.87 957.594L78.9739 943.219L78.9948 943.188L54.0416 928.781V899.984H49.8854V989.99C49.8854 990.74 50.2916 991.385 50.8854 991.75L50.8698 991.781L50.8645 991.786L203.661 1079.98H207.812L205.734 1076.39L159.99 1049.98Z" fill="#9E8954"/>
</g>
<mask id="mask6_2471_119" style="mask-type:luminance" maskUnits="userSpaceOnUse" x="0" y="899" width="109" height="181">
<path d="M0 899.307H108.714V1079.98H0V899.307Z" fill="white"/>
</mask>
<g mask="url(#mask6_2471_119)">
<path d="M27.026 1033.18C27.026 1033.18 27.026 1033.18 27.0208 1033.18L2.07812 1018.78V901.182L4.15104 899.984H0V1079.98H4.08854L2.01042 1078.78V1076.5L2.07812 1076.39V1023.57L24.901 1036.75L24.8854 1036.78L99.7292 1079.98H108.036L27.0104 1033.21L27.026 1033.18Z" fill="#9E8954"/>
</g>
<path d="M885.453 93.5938L885.458 93.599V0H881.302V86.4062L881.297 86.3906V180H885.453V93.5938Z" fill="#9E8954"/>
<path d="M804.38 46.8073L829.328 61.2083V178.797L827.25 180H833.484V1.19792L835.557 0H827.443L829.521 1.20313V3.26563L829.328 3.59896V56.4167L806.599 43.2917L806.651 43.2083L731.802 0H723.495L804.427 46.7188L804.38 46.8073Z" fill="#9E8954"/>
<path d="M777.547 266.505L777.49 266.406L731.74 239.995L754.615 226.792L754.583 226.745L832.453 181.802C833.115 181.411 833.484 180.714 833.484 180H827.26L781.51 206.406V180H777.354V208.807L752.417 223.198L752.443 223.25L727.589 237.599L702.693 223.229L702.714 223.193L677.76 208.792V180H673.604V270C673.604 270.745 674.01 271.396 674.604 271.76L674.589 271.786L674.583 271.792L827.375 359.99H835.557L881.307 333.589V359.99H885.464V331.188L987.318 272.396L989.396 273.594L986.286 268.208L986.276 268.198L833.484 356.401L831.469 359.891L832.453 358.193L833.49 356.391L831.411 357.589L829.516 356.5L829.453 356.401L783.708 329.99L806.578 316.786L806.552 316.74L881.302 273.589L885.458 266.391L804.385 313.193L804.411 313.245L779.557 327.594L677.703 268.797V266.51L677.76 266.406V213.589L700.589 226.766L700.568 226.802L778.521 271.802C779.198 272.188 779.979 272.151 780.599 271.792L780.573 271.74L933.271 183.594L935.349 180V179.99H939.443L937.365 178.797V176.51L937.427 176.401V123.583L960.25 136.76L960.234 136.792L1035.07 179.99H1043.39L962.359 133.219L962.375 133.193L937.427 118.786V1.19792L939.5 0H933.271V178.797L931.193 180L885.443 206.406V180H881.286V208.802L779.438 267.599L777.547 266.505Z" fill="#9E8954"/>
<path d="M986.24 91.7656L986.224 91.7917L986.214 91.8021L1139.01 180H1143.17L1141.09 176.401L1095.34 149.99L1118.21 136.792C1118.21 136.792 1118.21 136.792 1118.21 136.792L1116.14 133.193C1116.14 133.193 1116.14 133.193 1116.14 133.193L1091.18 147.594L989.333 88.8021V86.5104L989.396 86.4062V33.5885L1012.22 46.7656L1012.2 46.8021L1090.16 91.8073C1090.82 92.1875 1091.61 92.151 1092.23 91.7917L1089.13 86.4062L1043.37 60.0052L1066.24 46.7917L1064.17 43.1979L1039.22 57.599L1014.33 43.2344L1014.35 43.1927L989.396 28.7917V0H985.24V90C985.24 90.7552 985.641 91.3958 986.24 91.7656Z" fill="#9E8954"/>
<path d="M933.271 359.99H939.495L985.245 333.583V359.99H989.401V331.188L1014.34 316.786L1012.27 313.193L934.302 358.193C933.641 358.578 933.276 359.271 933.271 359.99Z" fill="#9E8954"/>
<path d="M881.297 273.599L962.375 226.802L960.297 223.198L885.453 266.406L881.297 273.599Z" fill="#9E8954"/>
<path d="M935.349 180L934.307 181.802L933.271 183.594L935.349 182.396L937.427 183.594L935.349 180Z" fill="#9E8954"/>
<path d="M1035.15 299.99L1012.27 313.198L1014.34 316.792L1039.3 302.391L1064.24 316.786L1066.32 313.193L988.354 268.193C987.687 267.802 986.906 267.839 986.286 268.198L989.396 273.589L1035.15 299.99Z" fill="#9E8954"/>
<path d="M1118.29 223.198L1043.44 180H1035.13L1116.21 226.802L1118.29 223.198Z" fill="#9E8954"/>
<path d="M962.38 226.802L987.328 212.401L1089.18 271.198V273.594L1092.3 268.208V268.198L939.5 180H935.349L937.427 183.594L983.177 210.005L960.302 223.198V223.208L962.38 226.802Z" fill="#9E8954"/>
<path d="M1143.23 180H1139.08L1141.16 181.198V183.594L1143.23 180Z" fill="#9E8954"/>
<path d="M1145.32 183.594L1143.24 180L1141.16 183.594V236.411L1118.29 223.208H1118.29L1116.21 226.802L1116.21 226.807L1141.16 241.208V358.797L1139.09 359.99H1145.32V183.594Z" fill="#9E8954"/>
<path d="M1093.35 359.99V269.99C1093.35 269.224 1092.93 268.562 1092.31 268.198L1089.19 273.589V326.401L1066.32 313.198L1064.24 316.802L1089.19 331.198V359.99H1093.35Z" fill="#9E8954"/>
<path d="M1193.13 359.99H1197.29V273.589L1193.13 266.391V359.99Z" fill="#9E8954"/>
<mask id="mask7_2471_119" style="mask-type:luminance" maskUnits="userSpaceOnUse" x="1088" y="356" width="159" height="96">
<path d="M1088.53 356H1246.66V452H1088.53V356Z" fill="white"/>
</mask>
<g mask="url(#mask7_2471_119)">
<path d="M1245.1 356.401V358.797L1243.03 359.99L1197.28 386.406L1197.28 360C1197.28 360 1197.28 360 1197.28 359.99H1193.13C1193.13 360 1193.13 360 1193.13 360L1193.12 388.802L1091.27 447.594L1089.19 446.396L1092.31 451.786V451.792L1245.1 363.594L1246.79 360.667V359.323L1246.14 358.193L1245.1 356.401Z" fill="#9E8954"/>
</g>
<path d="M1145.31 359.99H1139.09L1093.34 386.406L1093.34 360H1089.18L1089.19 388.802L1064.25 403.203L1066.33 406.797L1144.28 361.792C1144.95 361.411 1145.31 360.714 1145.31 359.99Z" fill="#9E8954"/>
<path d="M1197.29 446.391L1116.21 493.193L1118.29 496.786L1193.14 453.583L1197.29 446.391Z" fill="#9E8954"/>
<path d="M1144.28 538.193L1145.32 536.391L1143.24 537.594L1141.16 536.391L1143.24 539.99L1144.28 538.193Z" fill="#9E8954"/>
<mask id="mask8_2471_119" style="mask-type:luminance" maskUnits="userSpaceOnUse" x="1245" y="180" width="2" height="180">
<path d="M1245.02 180H1246.66V360H1245.02V180Z" fill="white"/>
</mask>
<g mask="url(#mask8_2471_119)">
<path d="M1245.1 180V356.401L1246.79 359.323V180H1245.1Z" fill="#9E8954"/>
</g>
<path d="M1197.29 180H1193.14V266.406L1197.29 273.599V180Z" fill="#9E8954"/>
<mask id="mask9_2471_119" style="mask-type:luminance" maskUnits="userSpaceOnUse" x="1143" y="477" width="104" height="67">
<path d="M1143.23 477.693H1246.66V544H1143.23V477.693Z" fill="white"/>
</mask>
<g mask="url(#mask9_2471_119)">
<path d="M1143.24 539.99L1144.28 541.792L1145.32 543.594V541.193L1147.4 539.99L1193.15 513.583L1193.14 539.99H1197.29L1197.3 511.188L1246.79 482.615V477.818L1145.32 536.396L1143.24 539.99Z" fill="#9E8954"/>
</g>
<mask id="mask10_2471_119" style="mask-type:luminance" maskUnits="userSpaceOnUse" x="1245" y="537" width="2" height="3">
<path d="M1245.02 537.333H1246.66V540H1245.02V537.333Z" fill="white"/>
</mask>
<g mask="url(#mask10_2471_119)">
<path d="M1245.1 539.99H1246.79V537.812L1246.14 538.193C1245.47 538.573 1245.1 539.271 1245.1 539.99Z" fill="#9E8954"/>
</g>
<mask id="mask11_2471_119" style="mask-type:luminance" maskUnits="userSpaceOnUse" x="1193" y="417" width="54" height="38">
<path d="M1193.08 417.464H1246.66V454.156H1193.08V417.464Z" fill="white"/>
</mask>
<g mask="url(#mask11_2471_119)">
<path d="M1193.13 453.599L1246.79 422.62V417.823L1197.29 446.401L1193.13 453.599Z" fill="#9E8954"/>
</g>
<mask id="mask12_2471_119" style="mask-type:luminance" maskUnits="userSpaceOnUse" x="1245" y="360" width="2" height="4">
<path d="M1245.02 360H1246.66V364H1245.02V360Z" fill="white"/>
</mask>
<g mask="url(#mask12_2471_119)">
<path d="M1245.1 363.594L1246.79 362.62V360.667L1246.14 361.792L1245.1 363.594Z" fill="#9E8954"/>
</g>
<mask id="mask13_2471_119" style="mask-type:luminance" maskUnits="userSpaceOnUse" x="1088" y="0" width="159" height="92">
<path d="M1088.53 0H1246.66V92H1088.53V0Z" fill="white"/>
</mask>
<g mask="url(#mask13_2471_119)">
<path d="M1243.03 0L1197.28 26.4062L1197.28 0.0104167C1197.28 0 1197.28 0 1197.28 0H1193.13C1193.13 0 1193.13 0 1193.13 0.0104167L1193.12 28.8073L1091.27 87.599L1089.19 86.401L1092.31 91.7917V91.8021L1245.1 3.59896L1246.79 0.671875V0H1243.03Z" fill="#9E8954"/>
</g>
<path d="M1066.33 46.8021L1144.28 1.80208C1144.95 1.42187 1145.31 0.718749 1145.31 0H1139.09L1093.34 26.4115L1093.34 0H1089.18L1089.19 28.8073L1064.25 43.2083L1066.33 46.8021Z" fill="#9E8954"/>
<path d="M1197.29 86.3906L1116.21 133.193L1118.29 136.792L1193.14 93.5885L1197.29 86.3906Z" fill="#9E8954"/>
<path d="M1144.28 178.193L1145.32 176.401L1143.24 177.599L1141.16 176.401L1143.24 179.99L1144.28 178.193Z" fill="#9E8954"/>
<mask id="mask14_2471_119" style="mask-type:luminance" maskUnits="userSpaceOnUse" x="1143" y="117" width="104" height="67">
<path d="M1143.23 117.693H1246.66V184H1143.23V117.693Z" fill="white"/>
</mask>
<g mask="url(#mask14_2471_119)">
<path d="M1143.24 180L1144.28 181.792L1145.32 183.594V181.198L1147.4 180L1193.15 153.589L1193.14 179.99H1197.29L1197.3 151.193L1246.79 122.62V117.823L1145.32 176.401L1143.24 180Z" fill="#9E8954"/>
</g>
<mask id="mask15_2471_119" style="mask-type:luminance" maskUnits="userSpaceOnUse" x="1245" y="177" width="2" height="3">
<path d="M1245.02 177.333H1246.66V180H1245.02V177.333Z" fill="white"/>
</mask>
<g mask="url(#mask15_2471_119)">
<path d="M1245.1 179.99H1246.79V177.823L1246.14 178.193C1245.47 178.578 1245.1 179.281 1245.1 179.99Z" fill="#9E8954"/>
</g>
<mask id="mask16_2471_119" style="mask-type:luminance" maskUnits="userSpaceOnUse" x="1193" y="57" width="54" height="38">
<path d="M1193.08 57.4635H1246.66V94.1562H1193.08V57.4635Z" fill="white"/>
</mask>
<g mask="url(#mask16_2471_119)">
<path d="M1193.13 93.599L1246.79 62.625V57.8281L1197.29 86.4062L1193.13 93.599Z" fill="#9E8954"/>
</g>
<mask id="mask17_2471_119" style="mask-type:luminance" maskUnits="userSpaceOnUse" x="1245" y="0" width="2" height="4">
<path d="M1245.02 0H1246.66V4H1245.02V0Z" fill="white"/>
</mask>
<g mask="url(#mask17_2471_119)">
<path d="M1245.1 3.59896L1246.79 2.625V0.671875L1246.14 1.80208L1245.1 3.59896Z" fill="#9E8954"/>
</g>
<path d="M781.516 539.99V449.99C781.516 449.281 781.156 448.667 780.615 448.292L780.661 448.203V448.198L627.87 359.99H623.719L625.797 363.594L671.542 390L648.672 403.203C648.672 403.203 648.672 403.203 648.667 403.203L650.745 406.802C650.745 406.797 650.745 406.797 650.745 406.797L675.698 392.396L777.547 451.193V453.26L777.359 453.583V506.401L754.625 493.281L754.682 493.193L676.724 448.188C676.057 447.802 675.271 447.839 674.651 448.198L677.76 453.583L723.51 479.99L700.635 493.198L702.713 496.797L727.661 482.391L752.458 496.708L752.411 496.797L777.359 511.198V539.99H781.516Z" fill="#9E8954"/>
<path d="M885.453 453.589L885.458 453.599V359.99H881.302V446.401L881.297 446.391V539.99H885.453V453.589Z" fill="#9E8954"/>
<path d="M1090.16 451.797C1090.82 452.182 1091.61 452.151 1092.23 451.792L1089.13 446.406L1043.37 419.995L1066.24 406.792L1064.17 403.193L1039.22 417.599L1014.33 403.229L1014.35 403.193L989.396 388.792V359.99H985.24V449.995C985.24 450.745 985.641 451.396 986.24 451.76L986.224 451.786L986.214 451.792L1139.01 539.99H1143.17L1141.09 536.396L1095.34 509.99L1118.21 496.786H1118.21L1116.14 493.188C1116.14 493.188 1116.14 493.188 1116.14 493.193L1091.18 507.589L989.333 448.792V446.505L989.396 446.401V393.583L1012.22 406.76L1012.2 406.797L1090.16 451.797Z" fill="#9E8954"/>
<path d="M985.245 693.583V719.984H989.401V691.182L1014.34 676.786L1012.27 673.188L934.302 718.188C933.641 718.573 933.276 719.271 933.271 719.984H939.495L985.245 693.583Z" fill="#9E8954"/>
<path d="M881.297 633.599L962.375 586.797L960.297 583.198L885.453 626.401L881.297 633.599Z" fill="#9E8954"/>
<path d="M885.464 719.984V691.188L987.318 632.385L989.396 633.589L986.286 628.198L986.276 628.193L833.484 716.391L831.469 719.88L832.453 718.188L833.49 716.391L831.411 717.589L829.516 716.5L829.453 716.391L783.708 689.984L806.578 676.786V676.781L806.552 676.734L881.302 633.583L885.458 626.385L804.385 673.188L804.411 673.24L779.557 687.589L677.703 628.792V626.505L677.76 626.401V573.583L700.589 586.76L700.568 586.797L778.521 631.797C779.198 632.182 779.979 632.146 780.599 631.792L780.573 631.734L933.271 543.594L935.349 539.99H939.443L937.365 538.792V536.505L937.427 536.396V483.578L960.25 496.76L960.234 496.786L1035.07 539.99H1043.39L962.359 493.219L962.375 493.188L937.427 478.781V361.188L939.5 359.99H933.271V538.792L931.193 539.99L885.443 566.401V539.995C885.443 539.995 885.443 539.995 885.443 539.99H881.286C881.286 539.995 881.286 539.995 881.286 539.995V568.797L779.438 627.594L777.547 626.5L777.49 626.401L731.74 599.995L754.615 586.786L754.583 586.74L832.453 541.792C833.115 541.411 833.484 540.714 833.484 539.995H827.26L781.51 566.401V539.995H777.354V568.802L752.417 583.198L752.443 583.245L727.589 597.594L702.693 583.224L702.714 583.188L677.76 568.786V539.99H673.604V629.995C673.604 630.745 674.01 631.391 674.604 631.755L674.589 631.781L674.583 631.792L827.375 719.99H835.557L881.307 693.583V719.984H885.464Z" fill="#9E8954"/>
<path d="M935.349 539.995L933.271 543.594L935.349 542.396L937.427 543.594L935.349 539.995Z" fill="#9E8954"/>
<path d="M1118.29 583.198L1043.44 539.995H1035.13L1116.21 586.797L1118.29 583.198Z" fill="#9E8954"/>
<path d="M1014.34 676.792L1039.3 662.385L1064.24 676.787L1066.32 673.188L988.354 628.188C987.687 627.802 986.906 627.839 986.286 628.193L989.396 633.578L1035.15 659.99L1012.27 673.198L1014.34 676.792Z" fill="#9E8954"/>
<path d="M962.38 586.797L987.328 572.396L1089.18 631.187V633.588L1092.3 628.198V628.193L939.5 539.99H935.349L937.427 543.594L983.177 569.995L960.302 583.198L962.38 586.797Z" fill="#9E8954"/>
<path d="M1143.23 539.995H1139.08L1141.16 541.198V543.594L1143.23 539.995Z" fill="#9E8954"/>
<path d="M1145.32 543.594L1143.24 539.99L1141.16 543.594V596.406L1118.29 583.203H1118.29L1116.21 586.797L1116.21 586.802L1141.16 601.203V718.786L1139.09 719.99H1145.32V543.594Z" fill="#9E8954"/>
<path d="M1093.35 719.99V629.984C1093.35 629.219 1092.93 628.557 1092.31 628.198L1089.19 633.583V686.401L1066.32 673.198L1064.24 676.797L1089.19 691.198V719.99H1093.35Z" fill="#9E8954"/>
<mask id="mask18_2471_119" style="mask-type:luminance" maskUnits="userSpaceOnUse" x="1088" y="625" width="159" height="187">
<path d="M1088.53 625.844H1246.66V812H1088.53V625.844Z" fill="white"/>
</mask>
<g mask="url(#mask18_2471_119)">
<path d="M1245.1 716.391V718.787L1243.03 719.99H1243.03L1197.28 746.396L1197.28 719.99H1197.29V633.583L1193.13 626.385V719.99H1193.13L1193.12 748.792L1091.27 807.589L1089.19 806.391L1092.31 811.781V811.787L1245.1 723.589L1246.79 720.667V719.318L1246.14 718.193L1245.1 716.391Z" fill="#9E8954"/>
</g>
<path d="M1145.31 719.99H1139.09L1093.34 746.396L1093.34 719.99H1089.18L1089.19 748.802L1064.25 763.193L1066.33 766.792L1144.28 721.792C1144.95 721.406 1145.31 720.708 1145.31 719.99Z" fill="#9E8954"/>
<path d="M1197.29 806.385L1116.21 853.188L1118.29 856.781L1193.14 813.578L1197.29 806.385Z" fill="#9E8954"/>
<path d="M1143.24 899.984L1144.28 898.188L1145.32 896.385L1143.24 897.583L1141.16 896.385L1143.24 899.984Z" fill="#9E8954"/>
<mask id="mask19_2471_119" style="mask-type:luminance" maskUnits="userSpaceOnUse" x="1245" y="539" width="2" height="182">
<path d="M1245.02 539.307H1246.66V720H1245.02V539.307Z" fill="white"/>
</mask>
<g mask="url(#mask19_2471_119)">
<path d="M1245.1 539.99V716.391L1246.79 719.318V539.99H1245.1Z" fill="#9E8954"/>
</g>
<path d="M1197.29 539.99H1193.14V626.401L1197.29 633.594V539.99Z" fill="#9E8954"/>
<mask id="mask20_2471_119" style="mask-type:luminance" maskUnits="userSpaceOnUse" x="1143" y="837" width="104" height="63">
<path d="M1143.23 837.693H1246.66V900H1143.23V837.693Z" fill="white"/>
</mask>
<g mask="url(#mask20_2471_119)">
<path d="M1143.24 899.984H1147.4L1193.15 873.583L1193.14 899.984H1197.29L1197.3 871.182L1246.79 842.609V837.818L1145.32 896.391L1143.24 899.984Z" fill="#9E8954"/>
</g>
<mask id="mask21_2471_119" style="mask-type:luminance" maskUnits="userSpaceOnUse" x="1245" y="897" width="2" height="4">
<path d="M1245.02 897.333H1246.66V900H1245.02V897.333Z" fill="white"/>
</mask>
<g mask="url(#mask21_2471_119)">
<path d="M1245.1 899.985H1246.79V897.802L1246.14 898.188C1245.47 898.568 1245.1 899.266 1245.1 899.985Z" fill="#9E8954"/>
</g>
<mask id="mask22_2471_119" style="mask-type:luminance" maskUnits="userSpaceOnUse" x="1193" y="777" width="54" height="38">
<path d="M1193.08 777.464H1246.66V814.156H1193.08V777.464Z" fill="white"/>
</mask>
<g mask="url(#mask22_2471_119)">
<path d="M1193.13 813.594L1246.79 782.62V777.823L1197.29 806.401L1193.13 813.594Z" fill="#9E8954"/>
</g>
<mask id="mask23_2471_119" style="mask-type:luminance" maskUnits="userSpaceOnUse" x="1245" y="720" width="2" height="4">
<path d="M1245.02 720H1246.66V724H1245.02V720Z" fill="white"/>
</mask>
<g mask="url(#mask23_2471_119)">
<path d="M1245.1 723.589L1246.79 722.62V720.667L1246.14 721.792L1245.1 723.589Z" fill="#9E8954"/>
</g>
<path d="M781.516 899.984V809.984C781.516 809.271 781.156 808.656 780.615 808.281L780.661 808.198V808.193L627.87 719.99H623.719L625.797 723.588L671.542 749.995L648.672 763.193C648.672 763.193 648.672 763.198 648.667 763.198L650.745 766.792L675.698 752.391L777.547 811.187V813.255L777.359 813.578V866.396L754.625 853.276L754.682 853.187L676.724 808.187C676.057 807.797 675.271 807.833 674.651 808.193L677.76 813.578L723.51 839.984L700.635 853.193L702.713 856.786L727.661 842.385L752.458 856.703L752.411 856.792L777.359 871.193V899.984H781.516Z" fill="#9E8954"/>
<path d="M1090.16 811.792C1090.82 812.182 1091.61 812.146 1092.23 811.786L1089.13 806.401L1043.37 779.99L1066.24 766.786L1064.17 763.187L1039.22 777.594L1014.33 763.219L1014.35 763.187L989.396 748.786V719.99H985.24V809.99C985.24 810.74 985.641 811.391 986.24 811.75L986.224 811.781L986.214 811.786L1139.01 899.984H1143.17L1141.09 896.391L1095.34 869.984L1118.21 856.781C1118.21 856.781 1118.21 856.781 1118.21 856.781L1116.14 853.187L1091.18 867.588L989.333 808.786V806.505L989.396 806.401V753.583L1012.22 766.76L1012.2 766.792L1090.16 811.792Z" fill="#9E8954"/>
<path d="M881.302 806.391L881.297 806.385V899.984H885.453V813.578L885.458 813.594V719.99H881.302V806.391Z" fill="#9E8954"/>
<path d="M835.557 719.99H827.443L829.521 721.187V723.26L829.328 723.588V776.401L806.599 763.281L806.651 763.193L731.802 719.99H723.495L804.427 766.708L804.38 766.792V766.802L829.328 781.198V898.786L827.25 899.984H833.484V721.187L835.557 719.99Z" fill="#9E8954"/>
<path d="M881.297 993.594L962.375 946.787L960.297 943.193L885.453 986.391L881.297 993.594Z" fill="#9E8954"/>
<mask id="mask24_2471_119" style="mask-type:luminance" maskUnits="userSpaceOnUse" x="673" y="719" width="371" height="361">
<path d="M673.328 719.307H1043.52V1079.98H673.328V719.307Z" fill="white"/>
</mask>
<g mask="url(#mask24_2471_119)">
<path d="M989.396 993.589L986.286 988.193L986.276 988.188L833.484 1076.39L831.469 1079.88L832.453 1078.19L833.49 1076.39L831.411 1077.58L829.516 1076.49L829.453 1076.39L783.708 1049.98L806.578 1036.78L806.552 1036.72L881.302 993.578L885.458 986.38L804.385 1033.19L804.411 1033.23L779.557 1047.58L677.703 988.786V986.5L677.76 986.391V933.578L700.589 946.75L700.568 946.792L778.521 991.792C779.198 992.172 779.979 992.141 780.599 991.786L780.573 991.729L933.271 903.589L935.349 899.984H939.443L937.365 898.786V896.505L937.427 896.391V843.578L960.25 856.75L960.234 856.781L1035.07 899.984H1043.39L962.359 853.214L962.375 853.188C962.375 853.182 962.375 853.182 962.375 853.182L937.427 838.781V721.188L939.5 719.99H933.271V898.786L931.193 899.984L885.443 926.396V899.984H881.286C881.286 899.99 881.286 899.99 881.286 899.99V928.792L779.438 987.589L777.547 986.5L777.49 986.401L731.74 959.99L754.615 946.786L754.583 946.74L832.453 901.786C833.115 901.406 833.484 900.708 833.484 899.984H827.26L781.51 926.396V899.99H777.354V928.792L752.417 943.193L752.443 943.245L727.589 957.594L702.693 943.219L702.714 943.188L677.76 928.781V899.984H673.604V989.99C673.604 990.74 674.01 991.385 674.604 991.75L674.589 991.781L674.583 991.786L827.375 1079.98H835.557L881.307 1053.57V1079.98H885.464V1051.18L987.318 992.38L989.396 993.589Z" fill="#9E8954"/>
</g>
<path d="M935.349 899.99L934.307 901.787L933.271 903.589L935.349 902.386L937.427 903.589L935.349 899.99Z" fill="#9E8954"/>
<path d="M988.354 988.182C987.687 987.797 986.906 987.833 986.286 988.187L989.396 993.578L1035.15 1019.98L1012.27 1033.19L1014.34 1036.79L1039.3 1022.38L1064.24 1036.78L1066.32 1033.19L988.354 988.182Z" fill="#9E8954"/>
<path d="M1043.44 899.984H1035.13L1116.21 946.786L1118.29 943.193L1043.44 899.984Z" fill="#9E8954"/>
<path d="M1092.3 988.193V988.188L939.5 899.984H935.349L937.427 903.589L983.177 929.99L960.302 943.193L962.38 946.792L987.328 932.391L1089.18 991.182V993.589L1092.3 988.193Z" fill="#9E8954"/>
<path d="M1143.23 899.99H1139.08L1141.16 901.188V903.589L1143.23 899.99Z" fill="#9E8954"/>
<mask id="mask25_2471_119" style="mask-type:luminance" maskUnits="userSpaceOnUse" x="1115" y="899" width="33" height="181">
<path d="M1115.99 899.307H1147.99V1079.98H1115.99V899.307Z" fill="white"/>
</mask>
<g mask="url(#mask25_2471_119)">
<path d="M1141.16 903.589V956.401L1118.29 943.198C1118.29 943.198 1118.29 943.198 1118.29 943.193L1116.21 946.792H1116.21L1141.16 961.198V1078.79L1139.09 1079.98H1145.32V901.182L1147.4 899.984H1143.24L1141.16 903.589Z" fill="#9E8954"/>
</g>
<mask id="mask26_2471_119" style="mask-type:luminance" maskUnits="userSpaceOnUse" x="1063" y="988" width="31" height="92">
<path d="M1063.99 988H1093.37V1079.98H1063.99V988Z" fill="white"/>
</mask>
<g mask="url(#mask26_2471_119)">
<path d="M1092.31 988.193L1089.19 993.578V1046.4L1066.32 1033.19L1064.24 1036.79L1089.19 1051.19V1079.98H1093.35V989.979C1093.35 989.208 1092.93 988.552 1092.31 988.193Z" fill="#9E8954"/>
</g>
<mask id="mask27_2471_119" style="mask-type:luminance" maskUnits="userSpaceOnUse" x="1242" y="899" width="5" height="181">
<path d="M1242.94 899.307H1246.66V1079.98H1242.94V899.307Z" fill="white"/>
</mask>
<g mask="url(#mask27_2471_119)">
<path d="M1245.1 899.984V1078.79L1243.03 1079.98H1246.79V899.984H1245.1Z" fill="#9E8954"/>
</g>
<mask id="mask28_2471_119" style="mask-type:luminance" maskUnits="userSpaceOnUse" x="1193" y="899" width="5" height="181">
<path d="M1193.08 899.307H1197.33V1079.98H1193.08V899.307Z" fill="white"/>
</mask>
<g mask="url(#mask28_2471_119)">
<path d="M1193.14 986.391L1193.13 986.385V1079.98H1197.29V993.578L1197.29 993.594V899.984H1193.14V986.391Z" fill="#9E8954"/>
</g>
</svg>
